<?xml version="1.0" standalone="yes"?>
<svg xmlns="http://www.w3.org/2000/svg" width="920" height="980">
<path style="fill:#f3f3f3; stroke:none;" d="M0 0L0 480L1 480C1.0122 461.574 7.68055 441.424 15.7562 425C22.3733 411.542 30.5055 398.777 41.0147 388C61.4266 367.067 83.7567 350.195 112 341.347C137.755 333.279 164.392 335 191 335L306 335L306 647L196 647C167.353 647 138.675 648.091 111 639.254C83.0698 630.335 61.2339 613.735 41.0147 593C30.5055 582.223 22.3733 569.458 15.7562 556C7.5177 539.245 1.00207 518.762 1 500L0 500L0 980L470 980L470 979C410.309 976.398 357.078 921.157 340.706 867.039C329.625 830.412 336 785.925 336 748L336 516C408.139 588.139 480.837 659.837 553 732C574.909 753.909 597.256 775.464 618.7 797.826C626.494 805.954 640.106 815.174 645.066 825.3C651.59 838.621 641.392 865.258 636.681 878C618.202 927.981 566.86 976.595 511 979L511 980L920 980L920 0L502 0L502 1C561.24 1.03931 618.446 47.7341 637.667 101.985C642.476 115.56 651.948 143.048 644.972 157C639.964 167.016 626.85 175.15 619 183C598.153 203.847 576.836 224.164 556 245C483.318 317.682 408.668 388.332 336 461L336 233C336 193.689 330.06 149.027 341.44 111C358.37 54.4243 417.947 1.04053 479 1C468.02 -3.60742 448.944 0 437 0L339 0L0 0z"/>
<path style="fill:#85d1cd; stroke:none;" d="M479 0L479 1L485 1L479 0z"/>
<path style="fill:#17b3ad; stroke:none;" d="M336 461C357.6 445.785 373.69 422.13 393.209 404.594C456.197 348.008 513.709 285.244 574.76 226.572C591.208 210.765 607.54 194.803 623.667 178.667C630 172.33 639.952 166.041 643.972 158C646.687 152.571 645.148 142.992 644.947 137.04C641.995 49.6937 547.721 -11.3925 466 2.28552C411.64 11.384 366.465 49.5625 345.579 100C329.674 138.41 336 184.33 336 225L336 461z"/>
<path style="fill:#85d1cd; stroke:none;" d="M486 0L487 1L486 0M488 0L489 1L488 0M490 0L491 1L490 0M492 0L493 1L492 0M494 0L495 1L494 0M496 0L496 1L502 1L496 0M469 1L469 2L472 2L469 1M510.667 1.33331L511.333 1.66669L510.667 1.33331M463.667 2.33331L464.333 2.66669L463.667 2.33331M517 2L518 3L517 2M460 3L461 4L460 3M456 4L457 5L456 4M529 5L530 6L529 5M448 6L449 7L448 6M533 6L534 7L533 6M444 7L444 8L447 8L444 7M536.667 7.33331L537.333 7.66669L536.667 7.33331M441 8L441 9L444 9L441 8M539.667 8.33331L540.333 8.66669L539.667 8.33331M439.667 9.33331L440.333 9.66669L439.667 9.33331M542.667 9.33331L543.333 9.66669L542.667 9.33331M436.667 10.3333L437.333 10.6667L436.667 10.3333M544 10L544 11L547 11L544 10M434 11L435 12L434 11M547 11L548 12L547 11M431 12L432 13L431 12M429 13L430 14L429 13M427 14L428 15L427 14M424 15L425 16L424 15M422 16L423 17L422 16M559 16L560 17L559 16M420 17L421 18L420 17M561 17L562 18L561 17M418 18L419 19L418 18M563.667 18.3333L564.333 18.6667L563.667 18.3333M565.667 19.3333L566.333 19.6667L565.667 19.3333M415 20L416 21L415 20M567 20L568 21L567 20M413 21L414 22L413 21M570 21L571 22L570 21M411 22L412 23L411 22M571 22L572 23L571 22M410 23L411 24L410 23M408 24L409 25L408 24M407 25L408 26L407 25M576 25L577 26L576 25M405 26L406 27L405 26M403 27L404 28L403 27M579 27L580 28L579 27M402 28L403 29L402 28M400.667 29.3333L401.333 29.6667L400.667 29.3333M582 29L583 30L582 29M584 31L585 32L584 31M586 32L587 33L586 32M587 33L588 34L587 33M394 34L395 35L394 34M590 35L591 36L590 35M591 36L592 37L591 36M592 37L593 38L592 37M594 38L595 39L594 38M388 39L389 40L388 39M595 39L596 40L595 39M596 40L597 41L596 40M597 41L598 42L597 41M598 42L599 43L598 42M599 43L600 44L599 43M600 44L601 45L600 44M601 45L602 46L601 45M602 46L603 47L602 46M603 47L604 48L603 47M604 48L605 49L604 48M605 49L606 50L605 49M606 50L607 51L606 50M607 51L608 52L607 51M608 52L609 53L608 52M609 53L610 54L609 53M610 55L611 56L610 55M611 56L612 57L611 56M370 57L371 58L370 57M612 57L613 58L612 57M613 58L614 59L613 58M614 59L615 60L614 59M368 60L369 61L368 60M615 61L616 62L615 61M617 63L618 64L617 63M364 65L365 66L364 65M618 65L619 66L618 65M619 66L620 67L619 66M362 68L363 69L362 68M361 70L362 71L361 70M360 71L361 72L360 71M359.333 72.6667L359.667 73.3333L359.333 72.6667M358 74L359 75L358 74M357 76L358 77L357 76M625 76L626 77L625 76M356 78L357 79L356 78M355 79L356 80L355 79M627 79L628 80L627 79M354 81L355 82L354 81M628 81L629 82L628 81M353 83L354 84L353 83M629 83L630 84L629 83M352 85L353 86L352 85M630 85L631 86L630 85M351 87L352 88L351 87M631 87L632 88L631 87M350 89L351 90L350 89M632 89L633 90L632 89M349 91L350 92L349 91M633 91L634 92L633 91M348 93L349 94L348 93M634 93L635 94L634 93M347 95L348 96L347 95M635 96L636 97L635 96M346 98L347 99L346 98M636.333 98.6667L636.667 99.3333L636.333 98.6667M637.333 101.667L637.667 102.333L637.333 101.667M638.333 104.667L638.667 105.333L638.333 104.667M343.333 105.667L343.667 106.333L343.333 105.667M639 106L640 107L639 106M342 107L342 110L343 110L342 107M341 110L341 113L342 113L341 110M640 110L641 111L640 110M340.333 114.667L340.667 115.333L340.333 114.667M641 114L642 115L641 114M642 118L643 119L642 118M339 119L340 120L339 119M338 124L339 125L338 124M644 127L644 130L645 130L644 127z"/>
<path style="fill:#dfe563; stroke:none;" d="M753 127L754 128L753 127M755 127L755 128L785 128L755 127M747 128L747 129L752 129L747 128z"/>
<path style="fill:#d3dd03; stroke:none;" d="M667 474L733 474C741.769 474 754.732 476.41 763 473.397C770.794 470.557 777.662 460.8 783.345 455C794.736 443.375 806.931 432.09 819 421.17C845.114 397.541 875.412 373.543 893.691 343C924.943 290.777 916.169 219.661 875.83 175C834.74 129.507 769.374 115.655 713 138.695C699.545 144.194 673.334 155.767 667.589 170.289C664.655 177.706 667 190.057 667 198L667 260L667 474z"/>
<path style="fill:#dfe563; stroke:none;" d="M787 128L787 129L792 129L787 128M743.667 129.333L744.333 129.667L743.667 129.333M794 129L794 130L797 130L794 129M737 130L738 131L737 130M800 130L801 131L800 130z"/>
<path style="fill:#85d1cd; stroke:none;" d="M644 131L645 132L644 131z"/>
<path style="fill:#dfe563; stroke:none;" d="M732 131L733 132L732 131M804 131L805 132L804 131z"/>
<path style="fill:#85d1cd; stroke:none;" d="M644 133L645 134L644 133z"/>
<path style="fill:#dfe563; stroke:none;" d="M813 134L814 135L813 134z"/>
<path style="fill:#85d1cd; stroke:none;" d="M645 135L645 158L646 158L645 135z"/>
<path style="fill:#dfe563; stroke:none;" d="M721 135L722 136L721 135M816 135L817 136L816 135M717.667 136.333L718.333 136.667L717.667 136.333M819.667 136.333L820.333 136.667L819.667 136.333M715 137L716 138L715 137M822 137L823 138L822 137M713 138L714 139L713 138M824 138L825 139L824 138M710.667 139.333L711.333 139.667L710.667 139.333M827 139L828 140L827 139M829 140L830 141L829 140M706 141L707 142L706 141M831 141L832 142L831 141M704 142L705 143L704 142M833 142L834 143L833 142M702 143L703 144L702 143M835 143L836 144L835 143M700 144L701 145L700 144M837 144L838 145L837 144M698 145L699 146L698 145M697 146L698 147L697 146M840 146L841 147L840 146M695 147L696 148L695 147M842 147L843 148L842 147M847 150L848 151L847 150M854 155L855 156L854 155M680 157L681 158L680 157M857 157L858 158L857 157z"/>
<path style="fill:#85d1cd; stroke:none;" d="M644 158L645 159L644 158z"/>
<path style="fill:#dfe563; stroke:none;" d="M858 158L859 159L858 158z"/>
<path style="fill:#85d1cd; stroke:none;" d="M643 159L644 160L643 159z"/>
<path style="fill:#dfe563; stroke:none;" d="M859 159L860 160L859 159z"/>
<path style="fill:#85d1cd; stroke:none;" d="M642 160L643 161L642 160M641 161L642 162L641 161z"/>
<path style="fill:#dfe563; stroke:none;" d="M675 161L676 162L675 161M861 161L862 162L861 161z"/>
<path style="fill:#85d1cd; stroke:none;" d="M640 162L641 163L640 162z"/>
<path style="fill:#dfe563; stroke:none;" d="M674 162L675 163L674 162M863 162L864 163L863 162z"/>
<path style="fill:#85d1cd; stroke:none;" d="M639 163L640 164L639 163z"/>
<path style="fill:#dfe563; stroke:none;" d="M673 163L674 164L673 163M864 163L865 164L864 163z"/>
<path style="fill:#85d1cd; stroke:none;" d="M638 164L639 165L638 164z"/>
<path style="fill:#dfe563; stroke:none;" d="M672 164L673 165L672 164M865 164L866 165L865 164z"/>
<path style="fill:#85d1cd; stroke:none;" d="M637 165L638 166L637 165z"/>
<path style="fill:#dfe563; stroke:none;" d="M866 165L867 166L866 165z"/>
<path style="fill:#85d1cd; stroke:none;" d="M636 166L637 167L636 166z"/>
<path style="fill:#dfe563; stroke:none;" d="M670 166L671 167L670 166M867 166L868 167L867 166z"/>
<path style="fill:#85d1cd; stroke:none;" d="M635 167L636 168L635 167z"/>
<path style="fill:#dfe563; stroke:none;" d="M669 167L670 168L669 167M868 167L869 168L868 167z"/>
<path style="fill:#85d1cd; stroke:none;" d="M634 168L635 169L634 168z"/>
<path style="fill:#dfe563; stroke:none;" d="M668 168L669 169L668 168M869 168L870 169L869 168z"/>
<path style="fill:#85d1cd; stroke:none;" d="M633 169L634 170L633 169z"/>
<path style="fill:#dfe563; stroke:none;" d="M870 169L871 170L870 169z"/>
<path style="fill:#85d1cd; stroke:none;" d="M632 170L633 171L632 170z"/>
<path style="fill:#dfe563; stroke:none;" d="M666 170L666 474L667 474L667 259L667 197L666 170M871 170L872 171L871 170z"/>
<path style="fill:#85d1cd; stroke:none;" d="M630.667 171.333L631.333 171.667L630.667 171.333z"/>
<path style="fill:#dfe563; stroke:none;" d="M872 171L873 172L872 171M873 172L874 173L873 172z"/>
<path style="fill:#85d1cd; stroke:none;" d="M628 173L629 174L628 173z"/>
<path style="fill:#dfe563; stroke:none;" d="M874 173L875 174L874 173M875 174L876 175L875 174z"/>
<path style="fill:#85d1cd; stroke:none;" d="M626 175L627 176L626 175z"/>
<path style="fill:#dfe563; stroke:none;" d="M876 175L877 176L876 175M877 176L878 177L877 176z"/>
<path style="fill:#85d1cd; stroke:none;" d="M624 177L625 178L624 177z"/>
<path style="fill:#dfe563; stroke:none;" d="M878 178L879 179L878 178z"/>
<path style="fill:#85d1cd; stroke:none;" d="M622 179L623 180L622 179z"/>
<path style="fill:#dfe563; stroke:none;" d="M879 179L880 180L879 179M880 180L881 181L880 180z"/>
<path style="fill:#85d1cd; stroke:none;" d="M620 181L621 182L620 181z"/>
<path style="fill:#dfe563; stroke:none;" d="M881 181L882 182L881 181z"/>
<path style="fill:#85d1cd; stroke:none;" d="M618 183L619 184L618 183z"/>
<path style="fill:#dfe563; stroke:none;" d="M883 184L884 185L883 184z"/>
<path style="fill:#85d1cd; stroke:none;" d="M614 187L615 188L614 187M612 189L613 190L612 189M611 190L612 191L611 190M610 191L611 192L610 191z"/>
<path style="fill:#dfe563; stroke:none;" d="M888 191L889 192L888 191z"/>
<path style="fill:#85d1cd; stroke:none;" d="M609 192L610 193L609 192M608 193L609 194L608 193M607 194L608 195L607 194z"/>
<path style="fill:#dfe563; stroke:none;" d="M890 194L891 195L890 194z"/>
<path style="fill:#85d1cd; stroke:none;" d="M606 195L607 196L606 195M605 196L606 197L605 196M604 197L605 198L604 197M603 198L604 199L603 198M602 199L603 200L602 199z"/>
<path style="fill:#dfe563; stroke:none;" d="M893 199L894 200L893 199z"/>
<path style="fill:#85d1cd; stroke:none;" d="M601 200L602 201L601 200M600 201L601 202L600 201M599 202L600 203L599 202M598 203L599 204L598 203M597 204L598 205L597 204z"/>
<path style="fill:#dfe563; stroke:none;" d="M637 204L459 383L400 442L369 474C393.653 456.634 414.657 429.343 436 408L568 276C584.842 259.158 601.151 241.849 618 225C623.471 219.529 635.162 211.584 637 204z"/>
<path style="fill:#85d1cd; stroke:none;" d="M596 205L597 206L596 205z"/>
<path style="fill:#d3dd03; stroke:none;" d="M637 205L460 383L401 442L370 474L638 474L638 284L638 230L637 205z"/>
<path style="fill:#85d1cd; stroke:none;" d="M595 206L596 207L595 206z"/>
<path style="fill:#dfe563; stroke:none;" d="M897 206L898 207L897 206z"/>
<path style="fill:#85d1cd; stroke:none;" d="M594 207L595 208L594 207M593 208L594 209L593 208z"/>
<path style="fill:#dfe563; stroke:none;" d="M898 208L899 209L898 208z"/>
<path style="fill:#85d1cd; stroke:none;" d="M592 209L593 210L592 209M591 210L592 211L591 210z"/>
<path style="fill:#dfe563; stroke:none;" d="M899 210L900 211L899 210z"/>
<path style="fill:#85d1cd; stroke:none;" d="M590 211L591 212L590 211M589 212L590 213L589 212z"/>
<path style="fill:#dfe563; stroke:none;" d="M900.333 212.667L900.667 213.333L900.333 212.667z"/>
<path style="fill:#85d1cd; stroke:none;" d="M588 213L589 214L588 213M587 214L588 215L587 214M586 215L587 216L586 215M585 216L586 217L585 216M584 217L585 218L584 217M583 218L584 219L583 218M582 219L583 220L582 219M581 220L582 221L581 220M580 221L581 222L580 221M579 222L580 223L579 222M578 223L579 224L578 223z"/>
<path style="fill:#dfe563; stroke:none;" d="M904 223L905 224L904 223z"/>
<path style="fill:#85d1cd; stroke:none;" d="M576 224L577 225L576 224M575 225L576 226L575 225z"/>
<path style="fill:#dfe563; stroke:none;" d="M905 226L906 227L905 226z"/>
<path style="fill:#85d1cd; stroke:none;" d="M573 227L574 228L573 227M571 229L572 230L571 229M569 231L570 232L569 231M568 232L569 233L568 232M567 233L568 234L567 233z"/>
<path style="fill:#dfe563; stroke:none;" d="M907 233L908 234L907 233z"/>
<path style="fill:#85d1cd; stroke:none;" d="M566 234L567 235L566 234M565 235L566 236L565 235z"/>
<path style="fill:#dfe563; stroke:none;" d="M907 235L908 236L907 235z"/>
<path style="fill:#85d1cd; stroke:none;" d="M564 236L565 237L564 236z"/>
<path style="fill:#dfe563; stroke:none;" d="M908.333 236.667L908.667 237.333L908.333 236.667z"/>
<path style="fill:#85d1cd; stroke:none;" d="M563 237L564 238L563 237M562 238L563 239L562 238M561 239L562 240L561 239z"/>
<path style="fill:#dfe563; stroke:none;" d="M909 240L909 243L910 243L909 240z"/>
<path style="fill:#85d1cd; stroke:none;" d="M559 241L560 242L559 241M557 243L558 244L557 243z"/>
<path style="fill:#dfe563; stroke:none;" d="M910 244L911 245L910 244z"/>
<path style="fill:#85d1cd; stroke:none;" d="M555 245L556 246L555 245M554 246L555 247L554 246z"/>
<path style="fill:#dfe563; stroke:none;" d="M910 246L911 247L910 246z"/>
<path style="fill:#85d1cd; stroke:none;" d="M553 247L554 248L553 247M552 248L553 249L552 248M551 249L552 250L551 249M550 250L551 251L550 250M549 251L550 252L549 251M548 252L549 253L548 252z"/>
<path style="fill:#dfe563; stroke:none;" d="M911 252L912 253L911 252z"/>
<path style="fill:#85d1cd; stroke:none;" d="M547 253L548 254L547 253M545 255L546 256L545 255M543 257L544 258L543 257M541 259L542 260L541 259M539 261L540 262L539 261M538 262L539 263L538 262M537 263L538 264L537 263M536 264L537 265L536 264M535 265L536 266L535 265M534 266L535 267L534 266M533 267L534 268L533 267M532 268L533 269L532 268M531 269L532 270L531 269M529 271L530 272L529 271M527 273L528 274L527 273M525 275L526 276L525 275M524 276L525 277L524 276M523 277L524 278L523 277M522 278L523 279L522 278M521 279L522 280L521 279M518 281L519 282L518 281M510 289L511 290L510 289z"/>
<path style="fill:#dfe563; stroke:none;" d="M911 289L912 290L911 289z"/>
<path style="fill:#85d1cd; stroke:none;" d="M508 291L509 292L508 291z"/>
<path style="fill:#dfe563; stroke:none;" d="M911 292L912 293L911 292z"/>
<path style="fill:#85d1cd; stroke:none;" d="M506 293L507 294L506 293M504 295L505 296L504 295z"/>
<path style="fill:#dfe563; stroke:none;" d="M910 296L910 299L911 299L910 296z"/>
<path style="fill:#85d1cd; stroke:none;" d="M502 297L503 298L502 297M500 299L501 300L500 299z"/>
<path style="fill:#dfe563; stroke:none;" d="M909 300L909 303L910 303L909 300M908 304L908 307L909 307L908 304z"/>
<path style="fill:#85d1cd; stroke:none;" d="M494 305L495 306L494 305M490 309L491 310L490 309z"/>
<path style="fill:#dfe563; stroke:none;" d="M907 310L908 311L907 310z"/>
<path style="fill:#85d1cd; stroke:none;" d="M486 313L487 314L486 313z"/>
<path style="fill:#dfe563; stroke:none;" d="M906 313L907 314L906 313M905 316L906 317L905 316z"/>
<path style="fill:#85d1cd; stroke:none;" d="M479 320L480 321L479 320M476 323L477 324L476 323M474 325L475 326L474 325z"/>
<path style="fill:#dfe563; stroke:none;" d="M900.333 328.667L900.667 329.333L900.333 328.667M899.333 330.667L899.667 331.333L899.333 330.667M898 333L899 334L898 333z"/>
<path style="fill:#85d1cd; stroke:none;" d="M139 335L140 336L139 335z"/>
<path style="fill:#17b3ad; stroke:none;" d="M306 646L306 433L306 368L305 335C290.648 336.685 275.382 335.161 260.919 335.162C234.507 335.164 208.065 335.703 181.656 335.319C145.862 334.798 111.813 336.527 80 355.453C-2.28359 404.404 -26.0013 517.079 38.2894 591C51.2303 605.879 66.6681 618.295 84 627.691C118.565 646.43 154.867 646 193 646L306 646z"/>
<path style="fill:#85d1cd; stroke:none;" d="M141 335L142 336L141 335M144 335L145 336L144 335M147 335L148 336L147 335M150 335L151 336L150 335M152 335L153 336L152 335M154 335L155 336L154 335M156 335L157 336L156 335M158 335L159 336L158 335M160 335L161 336L160 335M162 335L163 336L162 335M164 335L165 336L164 335M168 335L169 336L168 335M173 335L174 336L173 335M177 335L178 336L177 335M180 335L181 336L180 335M182 335L183 336L182 335M184 335L185 336L184 335M186 335L187 336L186 335M188 335L189 336L188 335M190 335L191 336L190 335M192 335L193 336L192 335M194 335L195 336L194 335M198 335L199 336L198 335M203 335L204 336L203 335M207 335L208 336L207 335M210 335L211 336L210 335M212 335L213 336L212 335M214 335L215 336L214 335M216 335L217 336L216 335M218 335L219 336L218 335M220 335L221 336L220 335M222 335L223 336L222 335M224 335L225 336L224 335M228 335L229 336L228 335M233 335L234 336L233 335M237 335L238 336L237 335M240 335L241 336L240 335M242 335L243 336L242 335M244 335L245 336L244 335M246 335L247 336L246 335M248 335L249 336L248 335M250 335L251 336L250 335M252 335L253 336L252 335M254 335L255 336L254 335M258 335L259 336L258 335M263 335L264 336L263 335M267 335L268 336L267 335M270 335L271 336L270 335M272 335L273 336L272 335M274 335L275 336L274 335M276 335L277 336L276 335M278 335L279 336L278 335M280 335L281 336L280 335M282 335L283 336L282 335M284 335L285 336L284 335M288 335L289 336L288 335M293 335L294 336L293 335M298 335L299 336L298 335M301 335L302 336L301 335M303 335L304 336L303 335M305 335L306 336L305 335M128 337L129 338L128 337M123 338L124 339L123 338M119 339L120 340L119 339z"/>
<path style="fill:#dfe563; stroke:none;" d="M890 339L891 340L890 339z"/>
<path style="fill:#85d1cd; stroke:none;" d="M114.667 340.333L115.333 340.667L114.667 340.333M111 341L111 342L114 342L111 341M108 342L108 343L111 343L108 342M105.667 343.333L106.333 343.667L105.667 343.333M103.667 344.333L104.333 344.667L103.667 344.333M100 345L101 346L100 345M98 346L99 347L98 346M96 347L97 348L96 347z"/>
<path style="fill:#dfe563; stroke:none;" d="M886 347L887 348L886 347M890 347L891 348L890 347z"/>
<path style="fill:#85d1cd; stroke:none;" d="M93 348L94 349L93 348M91 349L92 350L91 349z"/>
<path style="fill:#dfe563; stroke:none;" d="M889 349L890 350L889 349z"/>
<path style="fill:#85d1cd; stroke:none;" d="M89 350L90 351L89 350z"/>
<path style="fill:#dfe563; stroke:none;" d="M888 350L889 351L888 350z"/>
<path style="fill:#85d1cd; stroke:none;" d="M87 351L88 352L87 351M85 352L86 353L85 352z"/>
<path style="fill:#dfe563; stroke:none;" d="M887 352L888 353L887 352z"/>
<path style="fill:#85d1cd; stroke:none;" d="M83 353L84 354L83 353z"/>
<path style="fill:#dfe563; stroke:none;" d="M886 353L887 354L886 353z"/>
<path style="fill:#85d1cd; stroke:none;" d="M81 354L82 355L81 354z"/>
<path style="fill:#dfe563; stroke:none;" d="M883 354L884 355L883 354M885 355L886 356L885 355z"/>
<path style="fill:#85d1cd; stroke:none;" d="M78 356L79 357L78 356z"/>
<path style="fill:#dfe563; stroke:none;" d="M884 356L885 357L884 356z"/>
<path style="fill:#85d1cd; stroke:none;" d="M76 357L77 358L76 357z"/>
<path style="fill:#dfe563; stroke:none;" d="M879.333 357.667L879.667 358.333L879.333 357.667M883 357L884 358L883 357z"/>
<path style="fill:#85d1cd; stroke:none;" d="M75 358L76 359L75 358M73 359L74 360L73 359z"/>
<path style="fill:#dfe563; stroke:none;" d="M882 359L883 360L882 359z"/>
<path style="fill:#85d1cd; stroke:none;" d="M72 360L73 361L72 360z"/>
<path style="fill:#dfe563; stroke:none;" d="M881 360L882 361L881 360z"/>
<path style="fill:#85d1cd; stroke:none;" d="M70 361L71 362L70 361z"/>
<path style="fill:#dfe563; stroke:none;" d="M876 361L877 362L876 361M880 361L881 362L880 361z"/>
<path style="fill:#85d1cd; stroke:none;" d="M69 362L70 363L69 362M67 363L68 364L67 363z"/>
<path style="fill:#dfe563; stroke:none;" d="M872 365L873 366L872 365M868 368L869 369L868 368z"/>
<path style="fill:#85d1cd; stroke:none;" d="M59 369L60 370L59 369M58 370L59 371L58 370z"/>
<path style="fill:#dfe563; stroke:none;" d="M865 372L866 373L865 372M869 373L870 374L869 373M868 374L869 375L868 374z"/>
<path style="fill:#85d1cd; stroke:none;" d="M423 375L424 376L423 375z"/>
<path style="fill:#dfe563; stroke:none;" d="M861 376L862 377L861 376M857 379L858 380L857 379M854 383L855 384L854 383M850 387L851 388L850 387M853 388L854 389L853 388M852 389L853 390L852 389M847 390L848 391L847 390M851 390L852 391L851 390M850 391L851 392L850 391z"/>
<path style="fill:#85d1cd; stroke:none;" d="M36 392L37 393L36 392z"/>
<path style="fill:#dfe563; stroke:none;" d="M849 392L850 393L849 392M848 393L849 394L848 393M847 394L848 395L847 394M846 395L847 396L846 395M845 396L846 397L845 396M843 398L844 399L843 398M842 399L843 400L842 399M840 400L841 401L840 400z"/>
<path style="fill:#85d1cd; stroke:none;" d="M29 401L30 402L29 401z"/>
<path style="fill:#dfe563; stroke:none;" d="M839 401L840 402L839 401z"/>
<path style="fill:#85d1cd; stroke:none;" d="M28.3333 402.667L28.6667 403.333L28.3333 402.667z"/>
<path style="fill:#dfe563; stroke:none;" d="M838 402L839 403L838 402z"/>
<path style="fill:#85d1cd; stroke:none;" d="M394 403L395 404L394 403z"/>
<path style="fill:#dfe563; stroke:none;" d="M837 403L838 404L837 403z"/>
<path style="fill:#85d1cd; stroke:none;" d="M27 404L28 405L27 404M392 404L393 405L392 404z"/>
<path style="fill:#dfe563; stroke:none;" d="M836 404L837 405L836 404z"/>
<path style="fill:#85d1cd; stroke:none;" d="M26 405L27 406L26 405M391 405L392 406L391 405z"/>
<path style="fill:#dfe563; stroke:none;" d="M835 405L836 406L835 405M834 406L835 407L834 406z"/>
<path style="fill:#85d1cd; stroke:none;" d="M25 407L26 408L25 407z"/>
<path style="fill:#dfe563; stroke:none;" d="M833 407L834 408L833 407M832 408L833 409L832 408z"/>
<path style="fill:#85d1cd; stroke:none;" d="M24 409L25 410L24 409z"/>
<path style="fill:#dfe563; stroke:none;" d="M831 409L832 410L831 409z"/>
<path style="fill:#85d1cd; stroke:none;" d="M23 410L24 411L23 410z"/>
<path style="fill:#dfe563; stroke:none;" d="M830 410L831 411L830 410M829 411L830 412L829 411z"/>
<path style="fill:#85d1cd; stroke:none;" d="M22 412L23 413L22 412z"/>
<path style="fill:#dfe563; stroke:none;" d="M828 412L829 413L828 412M827 413L828 414L827 413z"/>
<path style="fill:#85d1cd; stroke:none;" d="M21 414L22 415L21 414z"/>
<path style="fill:#dfe563; stroke:none;" d="M826 414L827 415L826 414z"/>
<path style="fill:#85d1cd; stroke:none;" d="M20 415L21 416L20 415z"/>
<path style="fill:#dfe563; stroke:none;" d="M825 415L826 416L825 415M824 416L825 417L824 416z"/>
<path style="fill:#85d1cd; stroke:none;" d="M19 417L20 418L19 417z"/>
<path style="fill:#dfe563; stroke:none;" d="M823 417L824 418L823 417M822 418L823 419L822 418z"/>
<path style="fill:#85d1cd; stroke:none;" d="M18 419L19 420L18 419z"/>
<path style="fill:#dfe563; stroke:none;" d="M820 419L821 420L820 419M819 420L820 421L819 420z"/>
<path style="fill:#85d1cd; stroke:none;" d="M17 421L18 422L17 421z"/>
<path style="fill:#dfe563; stroke:none;" d="M818 421L819 422L818 421M817 422L818 423L817 422z"/>
<path style="fill:#85d1cd; stroke:none;" d="M16 423L17 424L16 423z"/>
<path style="fill:#dfe563; stroke:none;" d="M816 423L817 424L816 423M815 424L816 425L815 424z"/>
<path style="fill:#85d1cd; stroke:none;" d="M15 425L16 426L15 425z"/>
<path style="fill:#dfe563; stroke:none;" d="M814 425L815 426L814 425M813 426L814 427L813 426z"/>
<path style="fill:#85d1cd; stroke:none;" d="M14 427L15 428L14 427z"/>
<path style="fill:#dfe563; stroke:none;" d="M812 427L813 428L812 427M811 428L812 429L811 428z"/>
<path style="fill:#85d1cd; stroke:none;" d="M13 429L14 430L13 429z"/>
<path style="fill:#dfe563; stroke:none;" d="M810 429L811 430L810 429M809 430L810 431L809 430M808 431L809 432L808 431z"/>
<path style="fill:#85d1cd; stroke:none;" d="M12 432L13 433L12 432z"/>
<path style="fill:#dfe563; stroke:none;" d="M807 432L808 433L807 432M806 433L807 434L806 433z"/>
<path style="fill:#85d1cd; stroke:none;" d="M11 434L12 435L11 434z"/>
<path style="fill:#dfe563; stroke:none;" d="M805 434L806 435L805 434M803 435L804 436L803 435M802 436L803 437L802 436z"/>
<path style="fill:#85d1cd; stroke:none;" d="M10 437L11 438L10 437z"/>
<path style="fill:#dfe563; stroke:none;" d="M796 437L797 438L796 437M801 437L802 438L801 437M800 438L801 439L800 438z"/>
<path style="fill:#85d1cd; stroke:none;" d="M9.33333 439.667L9.66667 440.333L9.33333 439.667z"/>
<path style="fill:#dfe563; stroke:none;" d="M799 439L800 440L799 439M798 440L799 441L798 440M793 441L794 442L793 441M797 441L798 442L797 441z"/>
<path style="fill:#85d1cd; stroke:none;" d="M8.33333 442.667L8.66667 443.333L8.33333 442.667z"/>
<path style="fill:#dfe563; stroke:none;" d="M796 442L797 443L796 442M795 443L796 444L795 443M794 444L795 445L794 444z"/>
<path style="fill:#85d1cd; stroke:none;" d="M7.33333 445.667L7.66667 446.333L7.33333 445.667z"/>
<path style="fill:#dfe563; stroke:none;" d="M789 445L790 446L789 445M793 445L794 446L793 445M792 446L793 447L792 446M791 447L792 448L791 447M786 448L787 449L786 448M790 448L791 449L790 448z"/>
<path style="fill:#85d1cd; stroke:none;" d="M6 449L7 450L6 449z"/>
<path style="fill:#dfe563; stroke:none;" d="M789 449L790 450L789 449M788 450L789 451L788 450M786.667 451.333L787.333 451.667L786.667 451.333M782 452L783 453L782 452M785 452L786 453L785 452M783 454L784 455L783 454z"/>
<path style="fill:#85d1cd; stroke:none;" d="M4 456L5 457L4 456z"/>
<path style="fill:#dfe563; stroke:none;" d="M778 456L779 457L778 456M781 456L782 457L781 456M778 459L779 460L778 459z"/>
<path style="fill:#85d1cd; stroke:none;" d="M3 461L4 462L3 461z"/>
<path style="fill:#dfe563; stroke:none;" d="M775 462L776 463L775 462M771 463L772 464L771 463z"/>
<path style="fill:#85d1cd; stroke:none;" d="M2.33333 464.667L2.66667 465.333L2.33333 464.667z"/>
<path style="fill:#dfe563; stroke:none;" d="M768 466L769 467L768 466M771 466L772 467L771 466M769 468L770 469L769 468M768 469L769 470L768 469z"/>
<path style="fill:#85d1cd; stroke:none;" d="M1 470L1 473L2 473L1 470z"/>
<path style="fill:#dfe563; stroke:none;" d="M764 470L765 471L764 470M372 474L373 475L372 474z"/>
<path style="fill:#85d1cd; stroke:none;" d="M0 480L0 500L1 500L0 480M306 498L307 499L306 498M306 502L307 503L306 502M306 506L307 507L306 506M1 507L1 511L2 511L1 507z"/>
<path style="fill:#dfe563; stroke:none;" d="M371 508L371 509L375 509L371 508M376 508L376 509L379 509L376 508M380 508L380 509L384 509L380 508M385 508L385 509L388 509L385 508M389 508L389 509L405 509L389 508M406 508L406 509L410 509L406 508M411 508L411 509L415 509L411 508M416 508L416 509L419 509L416 508M420 508L420 509L435 509L420 508M436 508L436 509L440 509L436 508M441 508L441 509L445 509L441 508M446 508L446 509L449 509L446 508M450 508L450 509L465 509L450 508M466 508L466 509L470 509L466 508M471 508L471 509L475 509L471 508M476 508L476 509L479 509L476 508M480 508L480 509L495 509L480 508M496 508L496 509L500 509L496 508M501 508L501 509L505 509L501 508M506 508L506 509L509 509L506 508M510 508L510 509L525 509L510 508M526 508L526 509L530 509L526 508M531 508L531 509L535 509L531 508M536 508L536 509L539 509L536 508M540 508L540 509L555 509L540 508M556 508L556 509L560 509L556 508M561 508L561 509L565 509L561 508M566 508L566 509L569 509L566 508M570 508L570 509L585 509L570 508M586 508L586 509L590 509L586 508M591 508L591 509L595 509L591 508M596 508L596 509L599 509L596 508M600 508L600 509L615 509L600 508M616 508L616 509L620 509L616 508M621 508L621 509L625 509L621 508M626 508L626 509L629 509L626 508M630 508L630 509L637 509L630 508M678 824L667.603 811L667 786L667 729L667 509L675 509C664.631 504.66 666 516.3 666 523L666 578L666 759C666 779.935 658.997 810.614 678 824M676 508L676 509L680 509L676 508M681 508L681 509L685 509L681 508M686 508L686 509L689 509L686 508M690 508L690 509L705 509L690 508M706 508L706 509L710 509L706 508M711 508L711 509L715 509L711 508M716 508L716 509L719 509L716 508M720 508L720 509L735 509L720 508M736 508L736 509L740 509L736 508M741 508L741 509L745 509L741 508M746 508L747 509L746 508M762 508L763 509L762 508M369 509C374.637 521.089 389.603 531.603 399 541C420.978 562.978 442.615 591.118 468 609L431 571L369 509z"/>
<path style="fill:#d3dd03; stroke:none;" d="M370 509C374.815 519.325 386.99 527.99 395 536L449 590C492.543 633.543 535.849 677.221 579.714 720.424C598.577 739.002 616.348 762.748 638 778L638 509L370 509M667 509L667 721L667 784C667 792.192 664.757 804.28 667.603 812C672.928 826.442 697.101 837.08 710 843.255C765.715 869.926 836.122 853.069 876.83 808C918.939 761.38 924.569 687.818 890.946 635C875.481 610.706 851.407 593.68 831.657 573.255C816.403 557.48 800.042 542.854 784 527.911C777.841 522.173 771.133 512.562 763 509.603C754.728 506.593 741.773 509 733 509L667 509z"/>
<path style="fill:#85d1cd; stroke:none;" d="M2.33333 515.667L2.66667 516.333L2.33333 515.667M336 516L337 517L336 516z"/>
<path style="fill:#17b3ad; stroke:none;" d="M336 517L336 748C336 790.909 330.387 836.981 344.695 878C350.774 895.427 360.958 911.9 372.754 926C383.062 938.322 395.486 948.12 409 956.681C501.932 1015.55 627.558 955.973 644.561 848C645.559 841.665 647.679 832.19 645.397 826C642.494 818.128 631.838 810.838 626 805L579 758L413 592L363 542C354.955 533.955 346.146 522.381 336 517z"/>
<path style="fill:#85d1cd; stroke:none;" d="M338 518L339 519L338 518M339 519L340 520L339 519M341 521L342 522L341 521M4 523L5 524L4 523M343 523L344 524L343 523M345 525L346 526L345 525M5 527L6 528L5 527M348 527L349 528L348 527M306 528L307 529L306 528M349 528L350 529L349 528M350 529L351 530L350 529M351 530L352 531L351 530z"/>
<path style="fill:#dfe563; stroke:none;" d="M786 530L787 531L786 530z"/>
<path style="fill:#85d1cd; stroke:none;" d="M305.333 531.667L305.667 532.333L305.333 531.667M352 531L353 532L352 531M353 532L354 533L353 532M354 533L355 534L354 533M7.33333 534.667L7.66667 535.333L7.33333 534.667M305 534L305 537L306 537L305 534M355 534L356 535L355 534M356 535L357 536L356 535M8 536L8 539L9 539L8 536M357 536L358 537L357 536M358 537L359 538L358 537M359 538L360 539L359 538M360 539L361 540L360 539M9.33333 540.667L9.66667 541.333L9.33333 540.667M361 540L362 541L361 540M362 541L363 542L362 541M363 542L364 543L363 542M10 543L11 544L10 543M364 543L365 544L364 543M365 544L366 545L365 544M366 545L367 546L366 545M11 546L12 547L11 546M367 546L368 547L367 546M368 547L369 548L368 547M12 548L13 549L12 548M369 548L370 549L369 548M370 549L371 550L370 549M371 550L372 551L371 550M13 551L14 552L13 551M372 551L373 552L372 551M373 552L374 553L373 552M14 553L15 554L14 553M374 553L375 554L374 553M375 554L376 555L375 554M15 555L16 556L15 555M376 555L377 556L376 555M377 556L378 557L377 556M16 557L17 558L16 557M378 557L379 558L378 557M306 558L307 559L306 558M379 558L380 559L379 558M17 559L18 560L17 559M380 559L381 560L380 559M381 560L382 561L381 560M18 561L19 562L18 561M382 561L383 562L382 561z"/>
<path style="fill:#dfe563; stroke:none;" d="M819 561L820 562L819 561z"/>
<path style="fill:#85d1cd; stroke:none;" d="M306 562L307 563L306 562M383 562L384 563L383 562M19 563L20 564L19 563M384 563L385 564L384 563M385 564L386 565L385 564z"/>
<path style="fill:#dfe563; stroke:none;" d="M822 564L823 565L822 564z"/>
<path style="fill:#85d1cd; stroke:none;" d="M20 565L21 566L20 565M386 565L387 566L386 565M21 566L22 567L21 566M306 566L307 567L306 566M387 566L388 567L387 566M388 567L389 568L388 567M22 568L23 569L22 568M389 568L390 569L389 568z"/>
<path style="fill:#dfe563; stroke:none;" d="M826 568L827 569L826 568z"/>
<path style="fill:#85d1cd; stroke:none;" d="M390 569L391 570L390 569M23 570L24 571L23 570M391 570L392 571L391 570M24 571L25 572L24 571M392 571L393 572L392 571M393 572L394 573L393 572z"/>
<path style="fill:#dfe563; stroke:none;" d="M830 572L831 573L830 572z"/>
<path style="fill:#85d1cd; stroke:none;" d="M25 573L26 574L25 573M394 573L395 574L394 573M26.3333 574.667L26.6667 575.333L26.3333 574.667M395 574L396 575L395 574z"/>
<path style="fill:#dfe563; stroke:none;" d="M832 574L833 575L832 574z"/>
<path style="fill:#85d1cd; stroke:none;" d="M396 575L397 576L396 575M27 576L28 577L27 576M397 576L398 577L397 576z"/>
<path style="fill:#dfe563; stroke:none;" d="M834.667 576.333L835.333 576.667L834.667 576.333z"/>
<path style="fill:#85d1cd; stroke:none;" d="M28.3333 577.667L28.6667 578.333L28.3333 577.667M398 577L399 578L398 577z"/>
<path style="fill:#dfe563; stroke:none;" d="M836 577L837 578L836 577z"/>
<path style="fill:#85d1cd; stroke:none;" d="M399 578L400 579L399 578z"/>
<path style="fill:#dfe563; stroke:none;" d="M837 578L838 579L837 578z"/>
<path style="fill:#85d1cd; stroke:none;" d="M29 579L30 580L29 579M400 579L401 580L400 579z"/>
<path style="fill:#dfe563; stroke:none;" d="M838 579L839 580L838 579z"/>
<path style="fill:#85d1cd; stroke:none;" d="M30 580L31 581L30 580M401 580L402 581L401 580M402 581L403 582L402 581z"/>
<path style="fill:#dfe563; stroke:none;" d="M840 581L841 582L840 581z"/>
<path style="fill:#85d1cd; stroke:none;" d="M403 582L404 583L403 582z"/>
<path style="fill:#dfe563; stroke:none;" d="M841 582L842 583L841 582z"/>
<path style="fill:#85d1cd; stroke:none;" d="M404 583L405 584L404 583z"/>
<path style="fill:#dfe563; stroke:none;" d="M842 583L843 584L842 583z"/>
<path style="fill:#85d1cd; stroke:none;" d="M405 584L406 585L405 584z"/>
<path style="fill:#dfe563; stroke:none;" d="M843 584L844 585L843 584z"/>
<path style="fill:#85d1cd; stroke:none;" d="M406 585L407 586L406 585z"/>
<path style="fill:#dfe563; stroke:none;" d="M844 585L845 586L844 585z"/>
<path style="fill:#85d1cd; stroke:none;" d="M407 586L408 587L407 586z"/>
<path style="fill:#dfe563; stroke:none;" d="M845 586L846 587L845 586z"/>
<path style="fill:#85d1cd; stroke:none;" d="M408 587L409 588L408 587z"/>
<path style="fill:#dfe563; stroke:none;" d="M846 587L847 588L846 587z"/>
<path style="fill:#85d1cd; stroke:none;" d="M36 588L37 589L36 588M306 588L307 589L306 588M409 588L410 589L409 588z"/>
<path style="fill:#dfe563; stroke:none;" d="M848 588L849 589L848 588z"/>
<path style="fill:#85d1cd; stroke:none;" d="M410 589L411 590L410 589z"/>
<path style="fill:#dfe563; stroke:none;" d="M849 589L850 590L849 589z"/>
<path style="fill:#85d1cd; stroke:none;" d="M411 590L412 591L411 590z"/>
<path style="fill:#dfe563; stroke:none;" d="M850 590L851 591L850 590z"/>
<path style="fill:#85d1cd; stroke:none;" d="M412 591L413 592L412 591z"/>
<path style="fill:#dfe563; stroke:none;" d="M851 591L852 592L851 591z"/>
<path style="fill:#85d1cd; stroke:none;" d="M306 592L307 593L306 592M413 592L414 593L413 592z"/>
<path style="fill:#dfe563; stroke:none;" d="M852 592L853 593L852 592z"/>
<path style="fill:#85d1cd; stroke:none;" d="M414 593L415 594L414 593z"/>
<path style="fill:#dfe563; stroke:none;" d="M853 593L854 594L853 593z"/>
<path style="fill:#85d1cd; stroke:none;" d="M415 594L416 595L415 594z"/>
<path style="fill:#dfe563; stroke:none;" d="M854 594L855 595L854 594z"/>
<path style="fill:#85d1cd; stroke:none;" d="M416 595L417 596L416 595z"/>
<path style="fill:#dfe563; stroke:none;" d="M855 595L856 596L855 595z"/>
<path style="fill:#85d1cd; stroke:none;" d="M306 596L307 597L306 596M417 596L418 597L417 596z"/>
<path style="fill:#dfe563; stroke:none;" d="M856 596L857 597L856 596z"/>
<path style="fill:#85d1cd; stroke:none;" d="M418 597L419 598L418 597z"/>
<path style="fill:#dfe563; stroke:none;" d="M857 597L858 598L857 597z"/>
<path style="fill:#85d1cd; stroke:none;" d="M419 598L420 599L419 598z"/>
<path style="fill:#dfe563; stroke:none;" d="M858 598L859 599L858 598z"/>
<path style="fill:#85d1cd; stroke:none;" d="M420 599L421 600L420 599z"/>
<path style="fill:#dfe563; stroke:none;" d="M859 599L860 600L859 599z"/>
<path style="fill:#85d1cd; stroke:none;" d="M421 600L422 601L421 600z"/>
<path style="fill:#dfe563; stroke:none;" d="M860 600L861 601L860 600z"/>
<path style="fill:#85d1cd; stroke:none;" d="M422 601L423 602L422 601z"/>
<path style="fill:#dfe563; stroke:none;" d="M861 601L862 602L861 601z"/>
<path style="fill:#85d1cd; stroke:none;" d="M423 602L424 603L423 602z"/>
<path style="fill:#dfe563; stroke:none;" d="M862 602L863 603L862 602z"/>
<path style="fill:#85d1cd; stroke:none;" d="M424 603L425 604L424 603z"/>
<path style="fill:#dfe563; stroke:none;" d="M863 603L864 604L863 603z"/>
<path style="fill:#85d1cd; stroke:none;" d="M425 604L426 605L425 604z"/>
<path style="fill:#dfe563; stroke:none;" d="M864 604L865 605L864 604z"/>
<path style="fill:#85d1cd; stroke:none;" d="M426 605L427 606L426 605z"/>
<path style="fill:#dfe563; stroke:none;" d="M865 605L866 606L865 605z"/>
<path style="fill:#85d1cd; stroke:none;" d="M427 606L428 607L427 606z"/>
<path style="fill:#dfe563; stroke:none;" d="M866 606L867 607L866 606z"/>
<path style="fill:#85d1cd; stroke:none;" d="M428 607L429 608L428 607z"/>
<path style="fill:#dfe563; stroke:none;" d="M867 607L868 608L867 607z"/>
<path style="fill:#85d1cd; stroke:none;" d="M429 608L430 609L429 608z"/>
<path style="fill:#dfe563; stroke:none;" d="M868 608L869 609L868 608z"/>
<path style="fill:#85d1cd; stroke:none;" d="M430 609L431 610L430 609z"/>
<path style="fill:#dfe563; stroke:none;" d="M869 609L870 610L869 609z"/>
<path style="fill:#85d1cd; stroke:none;" d="M58 610L59 611L58 610M431 610L432 611L431 610z"/>
<path style="fill:#dfe563; stroke:none;" d="M870 610L871 611L870 610z"/>
<path style="fill:#85d1cd; stroke:none;" d="M432 611L433 612L432 611z"/>
<path style="fill:#dfe563; stroke:none;" d="M871 611L872 612L871 611z"/>
<path style="fill:#85d1cd; stroke:none;" d="M433 612L434 613L433 612z"/>
<path style="fill:#dfe563; stroke:none;" d="M872 612L873 613L872 612z"/>
<path style="fill:#85d1cd; stroke:none;" d="M434 613L435 614L434 613z"/>
<path style="fill:#dfe563; stroke:none;" d="M873 613L874 614L873 613z"/>
<path style="fill:#85d1cd; stroke:none;" d="M435 614L436 615L435 614z"/>
<path style="fill:#dfe563; stroke:none;" d="M874 614L875 615L874 614z"/>
<path style="fill:#85d1cd; stroke:none;" d="M64 615L65 616L64 615M436 615L437 616L436 615z"/>
<path style="fill:#dfe563; stroke:none;" d="M475 615L476 616L475 615M875 615L876 616L875 615z"/>
<path style="fill:#85d1cd; stroke:none;" d="M437 616L438 617L437 616z"/>
<path style="fill:#dfe563; stroke:none;" d="M876 616L877 617L876 616z"/>
<path style="fill:#85d1cd; stroke:none;" d="M67 617L68 618L67 617M438 617L439 618L438 617z"/>
<path style="fill:#dfe563; stroke:none;" d="M877 617L878 618L877 617z"/>
<path style="fill:#85d1cd; stroke:none;" d="M68.6667 618.333L69.3333 618.667L68.6667 618.333M306 618L307 619L306 618M439 618L440 619L439 618z"/>
<path style="fill:#dfe563; stroke:none;" d="M878 618L879 619L878 618z"/>
<path style="fill:#85d1cd; stroke:none;" d="M70 619L71 620L70 619M440 619L441 620L440 619z"/>
<path style="fill:#dfe563; stroke:none;" d="M879 619L880 620L879 619z"/>
<path style="fill:#85d1cd; stroke:none;" d="M72 620L73 621L72 620M441 620L442 621L441 620z"/>
<path style="fill:#dfe563; stroke:none;" d="M880 620L881 621L880 620z"/>
<path style="fill:#85d1cd; stroke:none;" d="M73 621L74 622L73 621M442 621L443 622L442 621z"/>
<path style="fill:#dfe563; stroke:none;" d="M881.333 621.667L881.667 622.333L881.333 621.667z"/>
<path style="fill:#85d1cd; stroke:none;" d="M75 622L76 623L75 622M306 622L307 623L306 622M443 622L444 623L443 622M76 623L77 624L76 623M444 623L445 624L444 623z"/>
<path style="fill:#dfe563; stroke:none;" d="M882 623L883 624L882 623z"/>
<path style="fill:#85d1cd; stroke:none;" d="M78 624L79 625L78 624M445 624L446 625L445 624z"/>
<path style="fill:#dfe563; stroke:none;" d="M883 624L884 625L883 624z"/>
<path style="fill:#85d1cd; stroke:none;" d="M80 625L81 626L80 625M446 625L447 626L446 625M81 626L82 627L81 626M306 626L307 627L306 626M447 626L448 627L447 626M83 627L84 628L83 627M448 627L449 628L448 627z"/>
<path style="fill:#dfe563; stroke:none;" d="M885 627L886 628L885 627z"/>
<path style="fill:#85d1cd; stroke:none;" d="M85 628L86 629L85 628M449 628L450 629L449 628z"/>
<path style="fill:#dfe563; stroke:none;" d="M886 628L887 629L886 628z"/>
<path style="fill:#85d1cd; stroke:none;" d="M87 629L88 630L87 629M450 629L451 630L450 629M89 630L90 631L89 630M451 630L452 631L451 630z"/>
<path style="fill:#dfe563; stroke:none;" d="M490 630L491 631L490 630z"/>
<path style="fill:#85d1cd; stroke:none;" d="M452 631L453 632L452 631z"/>
<path style="fill:#dfe563; stroke:none;" d="M888 631L889 632L888 631z"/>
<path style="fill:#85d1cd; stroke:none;" d="M93 632L94 633L93 632M453 632L454 633L453 632M96 633L97 634L96 633M454 633L455 634L454 633M98 634L99 635L98 634M455 634L456 635L455 634z"/>
<path style="fill:#dfe563; stroke:none;" d="M494 634L495 635L494 634M890 634L891 635L890 634z"/>
<path style="fill:#85d1cd; stroke:none;" d="M100 635L101 636L100 635M456 635L457 636L456 635M103.667 636.333L104.333 636.667L103.667 636.333M457 636L458 637L457 636M106 637L107 638L106 637M458 637L459 638L458 637z"/>
<path style="fill:#dfe563; stroke:none;" d="M892 637L893 638L892 637z"/>
<path style="fill:#85d1cd; stroke:none;" d="M108.667 638.333L109.333 638.667L108.667 638.333M459 638L460 639L459 638M111 639L111 640L114 640L111 639M460 639L461 640L460 639z"/>
<path style="fill:#dfe563; stroke:none;" d="M893 639L894 640L893 639z"/>
<path style="fill:#85d1cd; stroke:none;" d="M115.667 640.333L116.333 640.667L115.667 640.333M461 640L462 641L461 640M462 641L463 642L462 641M123 642L124 643L123 642M463 642L464 643L463 642M128 643L129 644L128 643M464 643L465 644L464 643M133 644L134 645L133 644M465 644L466 645L465 644z"/>
<path style="fill:#dfe563; stroke:none;" d="M896 644L897 645L896 644z"/>
<path style="fill:#85d1cd; stroke:none;" d="M139 645L139 646L149 646L139 645M466 645L467 646L466 645M150 646L150 647L306 647C293.83 641.893 272.253 646 259 646L150 646M467 646L468 647L467 646z"/>
<path style="fill:#dfe563; stroke:none;" d="M897 646L898 647L897 646z"/>
<path style="fill:#85d1cd; stroke:none;" d="M468 647L469 648L468 647M469 648L470 649L469 648z"/>
<path style="fill:#dfe563; stroke:none;" d="M898 648L899 649L898 648z"/>
<path style="fill:#85d1cd; stroke:none;" d="M470 649L471 650L470 649z"/>
<path style="fill:#dfe563; stroke:none;" d="M509 649L510 650L509 649z"/>
<path style="fill:#85d1cd; stroke:none;" d="M471 650L472 651L471 650z"/>
<path style="fill:#dfe563; stroke:none;" d="M899.333 650.667L899.667 651.333L899.333 650.667z"/>
<path style="fill:#85d1cd; stroke:none;" d="M472 651L473 652L472 651M473 652L474 653L473 652z"/>
<path style="fill:#dfe563; stroke:none;" d="M900 652L901 653L900 652z"/>
<path style="fill:#85d1cd; stroke:none;" d="M474 653L475 654L474 653M475 654L476 655L475 654z"/>
<path style="fill:#dfe563; stroke:none;" d="M901 654L902 655L901 654z"/>
<path style="fill:#85d1cd; stroke:none;" d="M476 655L477 656L476 655M477 656L478 657L477 656M478 657L479 658L478 657M479 658L480 659L479 658M480 659L481 660L480 659M481 660L482 661L481 660M482 661L483 662L482 661M483 662L484 663L483 662z"/>
<path style="fill:#dfe563; stroke:none;" d="M522 662L523 663L522 662z"/>
<path style="fill:#85d1cd; stroke:none;" d="M484 663L485 664L484 663z"/>
<path style="fill:#dfe563; stroke:none;" d="M523 663L524 664L523 663z"/>
<path style="fill:#85d1cd; stroke:none;" d="M485 664L486 665L485 664z"/>
<path style="fill:#dfe563; stroke:none;" d="M524 664L525 665L524 664z"/>
<path style="fill:#85d1cd; stroke:none;" d="M486 665L487 666L486 665z"/>
<path style="fill:#dfe563; stroke:none;" d="M905 665L906 666L905 665z"/>
<path style="fill:#85d1cd; stroke:none;" d="M487 666L488 667L487 666z"/>
<path style="fill:#dfe563; stroke:none;" d="M526 666L527 667L526 666z"/>
<path style="fill:#85d1cd; stroke:none;" d="M488 667L489 668L488 667M489 668L490 669L489 668z"/>
<path style="fill:#dfe563; stroke:none;" d="M906 668L907 669L906 668z"/>
<path style="fill:#85d1cd; stroke:none;" d="M490 669L491 670L490 669M491 670L492 671L491 670M492 671L493 672L492 671z"/>
<path style="fill:#dfe563; stroke:none;" d="M907 671L908 672L907 671z"/>
<path style="fill:#85d1cd; stroke:none;" d="M493 672L494 673L493 672M494 673L495 674L494 673M495 674L496 675L495 674M496 675L497 676L496 675z"/>
<path style="fill:#dfe563; stroke:none;" d="M908 675L908 678L909 678L908 675z"/>
<path style="fill:#85d1cd; stroke:none;" d="M497 676L498 677L497 676M498 677L499 678L498 677M499 678L500 679L499 678z"/>
<path style="fill:#dfe563; stroke:none;" d="M538 678L539 679L538 678M909 678L909 682L910 682L909 678z"/>
<path style="fill:#85d1cd; stroke:none;" d="M500 679L501 680L500 679M501 680L502 681L501 680M502 681L503 682L502 681M503 682L504 683L503 682z"/>
<path style="fill:#dfe563; stroke:none;" d="M910 682L910 685L911 685L910 682z"/>
<path style="fill:#85d1cd; stroke:none;" d="M504 683L505 684L504 683M505 684L506 685L505 684M506 685L507 686L506 685M507 686L508 687L507 686M508 687L509 688L508 687M509 688L510 689L509 688z"/>
<path style="fill:#dfe563; stroke:none;" d="M911 688L912 689L911 688z"/>
<path style="fill:#85d1cd; stroke:none;" d="M510 689L511 690L510 689M511 690L512 691L511 690z"/>
<path style="fill:#dfe563; stroke:none;" d="M911 690L912 691L911 690z"/>
<path style="fill:#85d1cd; stroke:none;" d="M512 691L513 692L512 691M513 692L514 693L513 692z"/>
<path style="fill:#dfe563; stroke:none;" d="M552 692L553 693L552 692z"/>
<path style="fill:#85d1cd; stroke:none;" d="M514 693L515 694L514 693M515 694L516 695L515 694M516 695L517 696L516 695M517 696L518 697L517 696M518 697L519 698L518 697M519 698L520 699L519 698M520 699L521 700L520 699z"/>
<path style="fill:#dfe563; stroke:none;" d="M911 699L912 700L911 699z"/>
<path style="fill:#85d1cd; stroke:none;" d="M521 700L522 701L521 700M522 701L523 702L522 701z"/>
<path style="fill:#dfe563; stroke:none;" d="M912 701L913 702L912 701z"/>
<path style="fill:#85d1cd; stroke:none;" d="M523 702L524 703L523 702M524 703L525 704L524 703M525 704L526 705L525 704M526 705L527 706L526 705M527 706L528 707L527 706M528 707L529 708L528 707M529 708L530 709L529 708M530 709L531 710L530 709M531 710L532 711L531 710M532 711L533 712L532 711M533 712L534 713L533 712M534 713L535 714L534 713M535 714L536 715L535 714M536 715L537 716L536 715M537 716L538 717L537 716M538 717L539 718L538 717M539 718L540 719L539 718M540 719L541 720L540 719M541 720L542 721L541 720z"/>
<path style="fill:#dfe563; stroke:none;" d="M580 720L581 721L580 720z"/>
<path style="fill:#85d1cd; stroke:none;" d="M542 721L543 722L542 721M543 722L544 723L543 722M544 723L545 724L544 723M545 724L546 725L545 724M546 725L547 726L546 725z"/>
<path style="fill:#dfe563; stroke:none;" d="M912 725L913 726L912 725z"/>
<path style="fill:#85d1cd; stroke:none;" d="M547 726L548 727L547 726M548 727L549 728L548 727M549 728L550 729L549 728M550 729L551 730L550 729M551 730L552 731L551 730M552 731L553 732L552 731M553 732L554 733L553 732z"/>
<path style="fill:#dfe563; stroke:none;" d="M911 732L912 733L911 732z"/>
<path style="fill:#85d1cd; stroke:none;" d="M554 733L555 734L554 733M555 734L556 735L555 734M556 735L557 736L556 735M557 736L558 737L557 736z"/>
<path style="fill:#dfe563; stroke:none;" d="M911 736L912 737L911 736z"/>
<path style="fill:#85d1cd; stroke:none;" d="M558 737L559 738L558 737M559 738L560 739L559 738z"/>
<path style="fill:#dfe563; stroke:none;" d="M910 738L910 741L911 741L910 738z"/>
<path style="fill:#85d1cd; stroke:none;" d="M560 739L561 740L560 739M561 740L562 741L561 740M562 741L563 742L562 741M563 742L564 743L563 742z"/>
<path style="fill:#dfe563; stroke:none;" d="M909 742L909 745L910 745L909 742z"/>
<path style="fill:#85d1cd; stroke:none;" d="M564 743L565 744L564 743M565 744L566 745L565 744M566 745L567 746L566 745M567 746L568 747L567 746z"/>
<path style="fill:#dfe563; stroke:none;" d="M908 746L908 749L909 749L908 746z"/>
<path style="fill:#85d1cd; stroke:none;" d="M568 747L569 748L568 747M569 748L570 749L569 748M570 749L571 750L570 749M571 750L572 751L571 750M572 751L573 752L572 751z"/>
<path style="fill:#dfe563; stroke:none;" d="M907 751L908 752L907 751z"/>
<path style="fill:#85d1cd; stroke:none;" d="M573 752L574 753L573 752M574 753L575 754L574 753M575 754L576 755L575 754M576 755L577 756L576 755z"/>
<path style="fill:#dfe563; stroke:none;" d="M906 755L907 756L906 755z"/>
<path style="fill:#85d1cd; stroke:none;" d="M577 756L578 757L577 756M578 757L579 758L578 757M579 758L580 759L579 758M580 759L581 760L580 759M581 760L582 761L581 760M582 761L583 762L582 761M583 762L584 763L583 762M584 763L585 764L584 763M585 764L586 765L585 764M586 765L587 766L586 765z"/>
<path style="fill:#dfe563; stroke:none;" d="M902 765L903 766L902 765z"/>
<path style="fill:#85d1cd; stroke:none;" d="M587 766L588 767L587 766M588 767L589 768L588 767M589 768L590 769L589 768z"/>
<path style="fill:#dfe563; stroke:none;" d="M898 768L899 769L898 768M901 768L902 769L901 768z"/>
<path style="fill:#85d1cd; stroke:none;" d="M590 769L591 770L590 769z"/>
<path style="fill:#dfe563; stroke:none;" d="M900.333 769.667L900.667 770.333L900.333 769.667z"/>
<path style="fill:#85d1cd; stroke:none;" d="M591 770L592 771L591 770M592 771L593 772L592 771z"/>
<path style="fill:#dfe563; stroke:none;" d="M899 771L899 774L900 774L899 771z"/>
<path style="fill:#85d1cd; stroke:none;" d="M593 772L594 773L593 772M594 773L595 774L594 773M595 774L596 775L595 774M596 775L597 776L596 775M597 776L598 777L597 776M598 777L599 778L598 777M599 778L600 779L599 778M600 779L601 780L600 779z"/>
<path style="fill:#dfe563; stroke:none;" d="M896 779L897 780L896 779z"/>
<path style="fill:#85d1cd; stroke:none;" d="M601 780L602 781L601 780M602 781L603 782L602 781z"/>
<path style="fill:#dfe563; stroke:none;" d="M895 781L896 782L895 781z"/>
<path style="fill:#85d1cd; stroke:none;" d="M603 782L604 783L603 782M604 783L605 784L604 783z"/>
<path style="fill:#dfe563; stroke:none;" d="M894 783L895 784L894 783z"/>
<path style="fill:#85d1cd; stroke:none;" d="M605 784L606 785L605 784M606 785L607 786L606 785z"/>
<path style="fill:#dfe563; stroke:none;" d="M893 785L894 786L893 785z"/>
<path style="fill:#85d1cd; stroke:none;" d="M607 786L608 787L607 786z"/>
<path style="fill:#dfe563; stroke:none;" d="M892 786L893 787L892 786z"/>
<path style="fill:#85d1cd; stroke:none;" d="M608 787L609 788L608 787M609 788L610 789L609 788z"/>
<path style="fill:#dfe563; stroke:none;" d="M891 788L892 789L891 788z"/>
<path style="fill:#85d1cd; stroke:none;" d="M610 789L611 790L610 789M611 790L612 791L611 790M612 791L613 792L612 791z"/>
<path style="fill:#dfe563; stroke:none;" d="M889 791L890 792L889 791z"/>
<path style="fill:#85d1cd; stroke:none;" d="M613 792L614 793L613 792M614 793L615 794L614 793M615 794L616 795L615 794z"/>
<path style="fill:#dfe563; stroke:none;" d="M887 794L888 795L887 794z"/>
<path style="fill:#85d1cd; stroke:none;" d="M616 795L617 796L616 795M617 796L618 797L617 796M618 797L619 798L618 797z"/>
<path style="fill:#dfe563; stroke:none;" d="M885 797L886 798L885 797z"/>
<path style="fill:#85d1cd; stroke:none;" d="M619 798L620 799L619 798z"/>
<path style="fill:#dfe563; stroke:none;" d="M884 798L885 799L884 798z"/>
<path style="fill:#85d1cd; stroke:none;" d="M621 800L622 801L621 800M622 801L623 802L622 801z"/>
<path style="fill:#dfe563; stroke:none;" d="M882 801L883 802L882 801M881 802L882 803L881 802z"/>
<path style="fill:#85d1cd; stroke:none;" d="M624 803L625 804L624 803z"/>
<path style="fill:#dfe563; stroke:none;" d="M880 803L881 804L880 803M879 804L880 805L879 804z"/>
<path style="fill:#85d1cd; stroke:none;" d="M626 805L627 806L626 805M628 807L629 808L628 807z"/>
<path style="fill:#dfe563; stroke:none;" d="M877 807L878 808L877 807M876 808L877 809L876 808z"/>
<path style="fill:#85d1cd; stroke:none;" d="M630 809L631 810L630 809z"/>
<path style="fill:#dfe563; stroke:none;" d="M875 809L876 810L875 809M874 810L875 811L874 810z"/>
<path style="fill:#85d1cd; stroke:none;" d="M632 811L633 812L632 811z"/>
<path style="fill:#dfe563; stroke:none;" d="M873 811L874 812L873 811M872 812L873 813L872 812z"/>
<path style="fill:#85d1cd; stroke:none;" d="M634 813L635 814L634 813z"/>
<path style="fill:#dfe563; stroke:none;" d="M871 813L872 814L871 813M870 814L871 815L870 814z"/>
<path style="fill:#85d1cd; stroke:none;" d="M636 815L637 816L636 815z"/>
<path style="fill:#dfe563; stroke:none;" d="M869 815L870 816L869 815M868 816L869 817L868 816z"/>
<path style="fill:#85d1cd; stroke:none;" d="M638 817L639 818L638 817z"/>
<path style="fill:#dfe563; stroke:none;" d="M867 817L868 818L867 817M866 818L867 819L866 818z"/>
<path style="fill:#85d1cd; stroke:none;" d="M640 819L641 820L640 819z"/>
<path style="fill:#dfe563; stroke:none;" d="M865 819L866 820L865 819z"/>
<path style="fill:#85d1cd; stroke:none;" d="M642 821L643 822L642 821z"/>
<path style="fill:#dfe563; stroke:none;" d="M861 822L862 823L861 822M860 823L861 824L860 823z"/>
<path style="fill:#85d1cd; stroke:none;" d="M645 824L646 825L645 824z"/>
<path style="fill:#dfe563; stroke:none;" d="M679 824L680 825L679 824M859 824L860 825L859 824M680 825L681 826L680 825M681 826L682 827L681 826M856 826L857 827L856 826M683 827L684 828L683 827M855 827L856 828L855 827M684 828L685 829L684 828M854 828L855 829L854 828M852 829L853 830L852 829M687 830L688 831L687 830M851 830L852 831L851 830M688 831L689 832L688 831M849 831L850 832L849 831M690 832L691 833L690 832M848 832L849 833L848 832M691 833L692 834L691 833M846 833L847 834L846 833M693 834L694 835L693 834M845 834L846 835L845 834M843 835L844 836L843 835M696 836L697 837L696 836M841 836L842 837L841 836M698 837L699 838L698 837M840 837L841 838L840 837M700 838L701 839L700 838M838 838L839 839L838 838z"/>
<path style="fill:#85d1cd; stroke:none;" d="M645 839L645 842L646 842L645 839z"/>
<path style="fill:#dfe563; stroke:none;" d="M702 839L703 840L702 839M836 839L837 840L836 839M834 840L835 841L834 840M706 841L707 842L706 841M832 841L833 842L832 841M708 842L709 843L708 842M830 842L831 843L830 842M710 843L711 844L710 843M828 843L829 844L828 843M712 844L713 845L712 844M826 844L827 845L826 844M714 845L715 846L714 845M823 845L824 846L823 845M717 846L718 847L717 846M820.667 846.333L821.333 846.667L820.667 846.333M719.667 847.333L720.333 847.667L719.667 847.333M817.667 847.333L818.333 847.667L817.667 847.333z"/>
<path style="fill:#85d1cd; stroke:none;" d="M644 848L645 849L644 848z"/>
<path style="fill:#dfe563; stroke:none;" d="M723 848L724 849L723 848M815 848L816 849L815 848M726 849L727 850L726 849M812 849L813 850L812 849M729 850L730 851L729 850M808 850L809 851L808 850M733 851L734 852L733 851M805 851L806 852L805 851z"/>
<path style="fill:#85d1cd; stroke:none;" d="M337 852L338 853L337 852z"/>
<path style="fill:#dfe563; stroke:none;" d="M737 852L738 853L737 852M801 852L802 853L801 852z"/>
<path style="fill:#85d1cd; stroke:none;" d="M643.333 853.667L643.667 854.333L643.333 853.667z"/>
<path style="fill:#dfe563; stroke:none;" d="M741.667 853.333L742.333 853.667L741.667 853.333M796.667 853.333L797.333 853.667L796.667 853.333M746 854L746 855L749 855L746 854M788 854L788 855L792 855L788 854M754 855L754 856L785 856L754 855z"/>
<path style="fill:#85d1cd; stroke:none;" d="M338 857L339 858L338 857M642.333 858.667L642.667 859.333L642.333 858.667M339 861L340 862L339 861M641.333 862.667L641.667 863.333L641.333 862.667M339 863L340 864L339 863M340.333 865.667L340.667 866.333L340.333 865.667M640 866L641 867L640 866M341 867L341 870L342 870L341 867M639.333 869.667L639.667 870.333L639.333 869.667M342 870L342 873L343 873L342 870M638 873L639 874L638 873M343.333 874.667L343.667 875.333L343.333 874.667M637 875L638 876L637 875M344 877L345 878L344 877M636 878L637 879L636 878M345 880L346 881L345 880M635 881L636 882L635 881M346 882L347 883L346 882M634 883L635 884L634 883M347 885L348 886L347 885M633 886L634 887L633 886M348 887L349 888L348 887M632 888L633 889L632 888M349 889L350 890L349 889M631 890L632 891L631 890M350 891L351 892L350 891M630 892L631 893L630 892M351 893L352 894L351 893M629 894L630 895L629 894M352 895L353 896L352 895M628 896L629 897L628 896M353 897L354 898L353 897M627 898L628 899L627 898M354 899L355 900L354 899M626 900L627 901L626 900M355 901L356 902L355 901M356 902L357 903L356 902M625 902L626 903L625 902M624 903L625 904L624 903M357 904L358 905L357 904M623 905L624 906L623 905M358 906L359 907L358 906M359.333 907.667L359.667 908.333L359.333 907.667M621 908L622 909L621 908M360 909L361 910L360 909M361 910L362 911L361 910M620 910L621 911L620 910M619 911L620 912L619 911M362 912L363 913L362 912M618 913L619 914L618 913M617 914L618 915L617 914M364 915L365 916L364 915M616 915L617 916L616 915M365 916L366 917L365 916M615 917L616 918L615 917M614 918L615 919L614 918M367 919L368 920L367 919M368 920L369 921L368 920M612 921L613 922L612 921M611 922L612 923L611 922M610 923L611 924L610 923M373 926L374 927L373 926M606 928L607 929L606 928M605 929L606 930L605 929M604 930L605 931L604 930M603 931L604 932L603 931M602 932L603 933L602 932M601 933L602 934L601 933M600 934L601 935L600 934M599 935L600 936L599 935M597 937L598 938L597 937M596 938L597 939L596 938M595 939L596 940L595 939M594 940L595 941L594 940M388 941L389 942L388 941M589 944L590 945L589 944M588 945L589 946L588 945M394 946L395 947L394 946M584 948L585 949L584 948M583 949L584 950L583 949M399 950L400 951L399 950M400.667 951.333L401.333 951.667L400.667 951.333M580 951L581 952L580 951M402 952L403 953L402 952M579 952L580 953L579 952M403 953L404 954L403 953M405 954L406 955L405 954M576 954L577 955L576 954M407 955L408 956L407 955M574 955L575 956L574 955M408 956L409 957L408 956M573 956L574 957L573 956M410 957L411 958L410 957M571 957L572 958L571 957M411 958L412 959L411 958M569 958L570 959L569 958M413 959L414 960L413 959M568 959L569 960L568 959M415 960L416 961L415 960M566 960L567 961L566 960M564 961L565 962L564 961M418 962L419 963L418 962M562 962L563 963L562 962M560 963L561 964L560 963M558 964L559 965L558 964M556 965L557 966L556 965M427 966L428 967L427 966M554 966L555 967L554 966M429 967L430 968L429 967M552 967L553 968L552 967M431 968L432 969L431 968M550 968L551 969L550 968M433.667 969.333L434.333 969.667L433.667 969.333M547 969L548 970L547 969M436.667 970.333L437.333 970.667L436.667 970.333M545 970L546 971L545 970M439 971L440 972L439 971M542 971L543 972L542 971M441 972L441 973L444 973L441 972M539 972L540 973L539 972M445.667 973.333L446.333 973.667L445.667 973.333M536 973L537 974L536 973M532.667 974.333L533.333 974.667L532.667 974.333M529 975L530 976L529 975M456 976L457 977L456 976M525 976L526 977L525 976M460 977L461 978L460 977M520.667 977.333L521.333 977.667L520.667 977.333M464 978L465 979L464 978M515.667 978.333L516.333 978.667L515.667 978.333M470 979L470 980L473 980L470 979M508 979L508 980L511 980L508 979z"/>
</svg>
